<svg xmlns="http://www.w3.org/2000/svg" width="1320" height="445" viewBox="0 0 1320 445" version="1.1">
	<path d="M 238.500 156.067 C 231.931 157.159, 229.958 159.576, 226.162 171.185 C 224.486 176.308, 214.540 206.633, 204.058 238.574 C 193.576 270.514, 185 298.044, 185 299.751 C 185 303.480, 188.346 306.478, 194.299 308.080 C 198.998 309.346, 202.099 308.334, 204.363 304.796 C 205.171 303.533, 215.119 273.938, 226.470 239.029 C 237.821 204.120, 247.309 175.358, 247.554 175.113 C 247.799 174.867, 248.237 174.903, 248.526 175.193 C 248.815 175.482, 258.484 204.653, 270.013 240.016 C 281.542 275.380, 291.714 305.132, 292.619 306.131 C 295.018 308.782, 297.378 309.244, 302.066 307.982 C 307.299 306.573, 311.002 302.971, 310.995 299.295 C 310.993 297.758, 301.114 266.380, 289.042 229.566 C 264.406 154.435, 265.702 157.309, 255.809 155.901 C 249.199 154.961, 244.903 155.002, 238.500 156.067 M 466.357 155.992 C 460.803 158.233, 461 155.452, 461 231.588 C 461 300.712, 461.030 301.768, 463.043 304.328 C 464.234 305.841, 466.570 307.204, 468.640 307.592 C 473.091 308.427, 479.642 306.537, 480.984 304.030 C 481.577 302.921, 482 293.609, 482 281.642 L 482 261.152 508.250 230.317 C 522.688 213.358, 540.237 192.824, 547.250 184.687 C 555.593 175.006, 560 169.098, 560 167.594 C 560 164.085, 555.913 158.715, 551.653 156.628 C 545.231 153.481, 547.995 150.856, 506.749 199.286 C 494.235 213.979, 483.548 226, 482.999 226 C 482.354 226, 482 214.449, 482 193.434 C 482 174.104, 481.602 160.125, 481.021 159.039 C 479.234 155.700, 471.212 154.032, 466.357 155.992 M 595.718 156.037 C 590.443 157.355, 586.244 159.676, 585.030 161.945 C 583.619 164.580, 583.606 301.396, 585.016 304.030 C 587.389 308.463, 598.866 309.015, 602.613 304.876 C 604.396 302.906, 604.527 299.979, 605 251.646 L 605.500 200.500 608.535 200.203 L 611.571 199.905 614.846 210.703 C 634.610 275.849, 643.367 302.688, 645.615 305 C 648.814 308.291, 655.920 308.524, 659.005 305.440 C 660.426 304.019, 665.252 289.435, 674.557 258.440 C 693.345 195.860, 691.463 201, 695.582 201 L 699 201 699 251.566 C 699 283.905, 699.366 302.816, 700.016 304.030 C 701.358 306.537, 707.909 308.427, 712.360 307.592 C 714.430 307.204, 716.766 305.841, 717.957 304.328 C 719.970 301.769, 720 300.703, 720 232.881 L 720 164.032 717.250 161.025 C 713.855 157.314, 703.783 154.459, 697.582 155.451 C 692.547 156.256, 685.827 160.089, 683.664 163.390 C 682.774 164.749, 675.705 188.505, 667.957 216.181 C 660.209 243.856, 653.500 266.877, 653.048 267.337 C 652.596 267.798, 652.010 267.798, 651.746 267.337 C 651.483 266.877, 644.649 243.821, 636.560 216.103 C 628.471 188.384, 621.147 164.628, 620.285 163.312 C 616.411 157.400, 604.446 153.857, 595.718 156.037 M 787.692 156.043 C 782.749 156.873, 780.537 158.128, 779.022 160.959 C 777.088 164.573, 734 297.226, 734 299.567 C 734 303, 737.881 306.622, 743.053 308.014 C 748.004 309.347, 751.066 308.391, 753.357 304.796 C 754.161 303.533, 764.165 273.813, 775.588 238.750 C 787.010 203.688, 796.695 175, 797.108 175 C 797.522 175, 803.320 191.762, 809.992 212.250 C 834.555 287.667, 840.255 304.538, 841.743 306.224 C 843.994 308.777, 846.417 309.234, 851.066 307.982 C 856.300 306.573, 860.002 302.971, 859.994 299.295 C 859.991 297.758, 850.123 266.391, 838.066 229.591 C 813.443 154.443, 814.739 157.314, 804.809 155.901 C 798.234 154.966, 793.889 155.002, 787.692 156.043 M 1121.354 155.643 C 1120.174 155.901, 1118.374 157.034, 1117.354 158.161 C 1115.585 160.116, 1115.500 163.481, 1115.500 231.577 L 1115.500 302.944 1117.761 305.206 C 1119.605 307.049, 1121.125 307.467, 1126 307.467 C 1130.875 307.467, 1132.395 307.049, 1134.239 305.206 L 1136.500 302.944 1136.500 231.500 C 1136.500 161.216, 1136.467 160.023, 1134.485 158.041 C 1132.441 155.996, 1125.518 154.732, 1121.354 155.643 M 1200.400 156.428 C 1198.694 157.170, 1197.007 158.539, 1196.650 159.471 C 1195.533 162.380, 1195.887 301.921, 1197.016 304.030 C 1199.418 308.518, 1211.065 308.994, 1215.004 304.765 C 1216.960 302.665, 1216.999 301.216, 1216.968 231.561 C 1216.943 174.846, 1216.674 160.155, 1215.637 158.789 C 1212.845 155.114, 1205.892 154.037, 1200.400 156.428 M 81 158 C 78.196 160.804, 78.236 168.760, 81.073 172.365 L 83.145 175 101.073 175 L 119 175 119 238.444 L 119 301.888 121.413 304.694 C 123.564 307.194, 124.487 307.500, 129.886 307.500 C 134.857 307.500, 136.353 307.091, 138.222 305.223 L 140.500 302.945 140.772 238.973 L 141.043 175 158.411 175 C 179.597 175, 180.500 174.612, 180.500 165.500 C 180.500 155.453, 183.445 156, 129.389 156 C 84.333 156, 82.943 156.057, 81 158 M 353.281 156.939 C 342.295 159.655, 333.124 167.477, 330.477 176.388 C 328.413 183.339, 328.425 211.701, 330.495 218.672 C 332.582 225.698, 338.435 232.006, 346.192 235.587 C 352.493 238.497, 352.528 238.501, 377 239 C 403.931 239.550, 405.191 239.819, 407.585 245.548 C 409.567 250.293, 409.563 276.718, 407.579 281.466 C 405.077 287.453, 402.697 288, 379.126 288 L 358.153 288 355.106 285.436 C 351.363 282.286, 350.013 277.719, 350.006 268.184 C 350.003 264.161, 349.542 260.013, 348.983 258.968 C 347.682 256.538, 340.994 254.723, 336.468 255.572 C 330.405 256.709, 329 259.697, 329 271.453 C 329 289.145, 333.144 296.992, 345.771 303.208 L 352.458 306.500 379.500 306.500 L 406.542 306.500 413.218 303.213 C 420.869 299.447, 427.055 293.096, 428.824 287.193 C 430.416 281.880, 430.406 245.087, 428.811 239.764 C 427.030 233.820, 420.170 226.812, 412.800 223.409 C 406.514 220.507, 406.445 220.499, 382 219.980 C 368.525 219.694, 356.801 219.117, 355.947 218.699 C 352.263 216.892, 350.568 211.777, 350.165 201.249 C 349.612 186.798, 350.451 182.349, 354.490 178.310 L 357.800 175 378.950 175 C 402.713 175, 405.074 175.539, 407.579 181.534 C 408.360 183.405, 409 188.079, 409 191.921 C 409 200.238, 410.258 203.450, 414.146 205.061 C 417.885 206.609, 425.536 205.730, 428.041 203.463 C 429.765 201.903, 430 200.343, 430 190.471 C 430 172.487, 426.900 166.533, 414.292 160.297 L 406.613 156.500 381.556 156.322 C 367.775 156.223, 355.052 156.501, 353.281 156.939 M 868 158 C 865.161 160.839, 865.184 169.747, 868.039 172.811 C 869.990 174.906, 870.850 175, 888.039 175 L 906 175 906 237.953 C 906 282.611, 906.328 301.626, 907.130 303.385 C 908.656 306.735, 913.024 308.370, 918.727 307.727 C 927.583 306.729, 927 311.579, 927 238.889 L 927 175 945 175 C 966.609 175, 967 174.823, 967 165.057 C 967 155.449, 970.084 156, 916.277 156 C 871.333 156, 869.942 156.058, 868 158 M 1007 157.875 C 1001.109 159.768, 994.570 163.543, 991.788 166.657 C 990.847 167.711, 989.047 170.807, 987.788 173.537 L 985.500 178.500 985.500 231.500 L 985.500 284.500 988.359 290.323 C 991.385 296.486, 995.842 300.486, 1004 304.362 C 1008.258 306.385, 1009.978 306.500, 1036 306.500 C 1062.022 306.500, 1063.742 306.385, 1068 304.362 C 1076.122 300.503, 1080.617 296.482, 1083.582 290.421 C 1086.031 285.416, 1086.428 283.304, 1086.741 273.599 C 1087.173 260.213, 1086.367 258.107, 1080.039 256.096 C 1076.247 254.891, 1075.051 254.891, 1071.585 256.096 C 1066.225 257.961, 1065.033 260.661, 1065.011 271 C 1064.990 280.537, 1063.048 285.271, 1058.434 287.025 C 1057.024 287.561, 1046.928 288, 1036 288 C 1025.072 288, 1014.976 287.561, 1013.566 287.025 C 1012.155 286.489, 1010.095 284.576, 1008.989 282.775 C 1007.034 279.594, 1006.984 278.089, 1007.238 230.272 L 1007.500 181.044 1010.271 178.272 L 1013.041 175.500 1034.315 175.197 C 1046.990 175.016, 1056.661 175.301, 1058.242 175.902 C 1062.979 177.703, 1064.448 181.366, 1065.020 192.804 C 1065.513 202.648, 1065.691 203.337, 1068.326 205.604 C 1072.251 208.980, 1079.763 208.970, 1083.694 205.583 C 1086.489 203.176, 1086.500 203.117, 1086.479 190.833 C 1086.461 180.153, 1086.153 177.832, 1084.180 173.512 C 1080.410 165.257, 1074.735 160.769, 1064.068 157.609 C 1055.875 155.182, 1014.786 155.373, 1007 157.875 M 1160.450 214.407 C 1150.824 218.599, 1148.099 231.487, 1155.142 239.509 C 1161.107 246.302, 1170.406 246.433, 1176.876 239.816 C 1180.288 236.325, 1181.520 231.914, 1180.729 226.015 C 1180.051 220.959, 1177.438 217.494, 1172.434 215.015 C 1167.745 212.691, 1164.739 212.538, 1160.450 214.407 M 516.400 234.400 C 513.642 237.158, 513 238.572, 513 241.889 C 513 245.335, 514.201 247.747, 520.644 257.239 C 542.882 290, 551.718 302.416, 553.743 303.746 C 556.822 305.770, 560.557 304.643, 564.787 300.413 C 570.476 294.724, 569.862 293.238, 549.494 263.457 C 525.704 228.671, 527.580 231, 523.349 231 C 520.646 231, 518.989 231.811, 516.400 234.400 M 242.020 248.752 C 232.554 253.507, 231.257 266.338, 239.581 272.885 C 246.207 278.097, 256.495 275.532, 260.008 267.793 C 262.444 262.424, 262.445 260.577, 260.012 255.216 C 258.528 251.946, 257.054 250.472, 253.784 248.988 C 248.468 246.576, 246.433 246.535, 242.020 248.752 M 791.020 248.752 C 781.554 253.507, 780.257 266.338, 788.581 272.885 C 795.207 278.097, 805.495 275.532, 809.008 267.793 C 811.444 262.424, 811.445 260.577, 809.012 255.216 C 807.528 251.946, 806.054 250.472, 802.784 248.988 C 797.468 246.576, 795.433 246.535, 791.020 248.752" stroke="none" fill="#181616" fill-rule="evenodd"/>
</svg>