<svg xmlns="http://www.w3.org/2000/svg" width="1708" height="431" viewBox="0 0 1708 431" version="1.1">
	<path d="M 0 215.501 L 0 431.001 854.250 430.751 L 1708.500 430.500 1708.752 215.250 L 1709.005 -0 854.502 -0 L 0 0 0 215.501 M 0.491 216 C 0.491 334.525, 0.607 383.012, 0.750 323.750 C 0.892 264.487, 0.892 167.512, 0.750 108.250 C 0.607 48.987, 0.491 97.475, 0.491 216 M 803.116 104.822 C 801.691 107.548, 704 328.748, 704 329.250 C 704 330.402, 723.155 338.241, 723.948 337.413 C 724.812 336.511, 822.576 115.669, 823.185 113.245 C 823.372 112.500, 819.541 110.195, 813.747 107.567 C 805.037 103.617, 803.900 103.323, 803.116 104.822 M 388.741 107.405 C 381.563 110.013, 378.479 114.684, 379.274 121.742 C 380.502 132.633, 394.237 137.633, 403.506 130.563 C 407.802 127.287, 409.648 121.495, 407.995 116.485 C 406.752 112.720, 400.871 107.007, 398.215 106.986 C 397.272 106.979, 395.600 106.762, 394.500 106.506 C 393.400 106.249, 390.808 106.653, 388.741 107.405 M 95 176.500 L 95 238 110 238 L 125 238 125 218.500 L 125 199 140.411 199 C 157.191 199, 163.699 197.710, 172.272 192.687 C 177.500 189.623, 184.136 182.623, 186.811 177.349 C 191.724 167.663, 192.284 150.715, 188.055 139.715 C 183.825 128.717, 172.109 118.878, 159.885 116.060 C 157.460 115.501, 141.979 115.038, 125.250 115.024 L 95 115 95 176.500 M 638.783 134.250 L 638.500 145.500 632.250 145.798 L 626 146.095 626 156.548 L 626 167 632.500 167 L 639 167 639 193.134 C 639 210.915, 639.393 220.584, 640.230 223.384 C 641.994 229.288, 648.557 235.494, 655.089 237.434 C 665.296 240.465, 686.662 238.847, 685.585 235.124 C 685.327 234.231, 684.356 229.579, 683.428 224.787 L 681.741 216.074 677.397 216.669 C 674.246 217.101, 672.359 216.810, 670.526 215.609 L 668 213.954 668 190.477 L 668 167 676 167 L 684 167 684 156.500 L 684 146 676 146 L 668 146 668 134.500 L 668 123 653.533 123 L 639.066 123 638.783 134.250 M 125 157 L 125 176 136.040 176 C 145.054 176, 147.789 175.638, 150.945 174.028 C 158.083 170.387, 161.787 162.756, 160.604 154.131 C 159.722 147.695, 156.698 143.527, 150.766 140.571 C 146.229 138.310, 144.365 138, 135.304 138 L 125 138 125 157 M 250.500 145.490 C 245.741 147.158, 238.433 154.754, 237.500 159 C 236.167 165.068, 235 162.995, 235 154.559 L 235 146 221 146 L 207 146 207 192 L 207 238 221.500 238 L 236 238 236 210.468 C 236 179.884, 236.209 178.658, 242.330 173.284 C 246.627 169.511, 250.958 168.520, 259.619 169.329 L 266 169.925 266 157.593 L 266 145.262 262.250 144.642 C 256.933 143.763, 255.036 143.900, 250.500 145.490 M 307.763 145.033 C 290.278 147.977, 277.741 158.475, 272.747 174.354 C 269.621 184.296, 269.678 201.712, 272.865 210.500 C 278.830 226.944, 290.622 236.380, 308.580 239.079 C 333.900 242.885, 355.624 229.900, 361.467 207.465 C 363.210 200.772, 363.468 184.743, 361.939 178.112 C 356.530 154.647, 333.647 140.674, 307.763 145.033 M 462.500 144.699 C 435.609 148.274, 419.204 174.702, 425.483 204.335 C 429.742 224.435, 442.200 236.139, 462.436 239.051 C 484.852 242.277, 504.764 233.757, 511.981 217.852 C 515.591 209.896, 515.737 210, 500.969 210 L 487.939 210 484.887 213.476 C 474.706 225.071, 453 217.215, 453 201.935 L 453 199 484 199 L 515 199 514.992 193.250 C 514.971 177.189, 509.837 163.708, 500.487 155.163 C 491.422 146.877, 476.673 142.814, 462.500 144.699 M 564.500 145.073 C 547.082 147.996, 534.768 158.399, 529.714 174.463 C 526.541 184.549, 526.602 200.777, 529.850 210.251 C 532.571 218.191, 539.040 227.398, 544.571 231.203 C 558.600 240.856, 579.830 242.464, 595.651 235.071 C 606.830 229.849, 613.839 220.337, 615.805 207.723 L 616.706 201.945 603.259 202.223 L 589.811 202.500 588.447 206.500 C 587.697 208.700, 585.496 211.963, 583.556 213.750 C 580.542 216.527, 579.291 217, 574.949 217 C 569.349 217, 566.857 216.020, 562.777 212.216 C 558.392 208.128, 556.721 201.416, 557.156 189.647 C 557.485 180.768, 557.879 178.882, 560.252 174.832 C 562.142 171.609, 564.293 169.552, 567.302 168.096 C 572.626 165.519, 575.286 165.493, 580.736 167.967 C 584.782 169.803, 587.288 173.356, 589.401 180.250 C 589.875 181.798, 591.421 182, 602.802 182 C 609.878 182, 615.898 181.768, 616.182 181.485 C 617.198 180.469, 615.059 170.809, 612.655 165.559 C 607.792 154.936, 597.742 147.860, 584.050 145.417 C 575.619 143.913, 571.813 143.846, 564.500 145.073 M 379 195.889 C 379 253.210, 379.539 249.857, 370.186 250.756 L 365 251.254 365 262.278 L 365 273.302 374.250 272.683 C 391.055 271.559, 400.225 267.029, 405 257.493 L 407.500 252.500 407.783 199.250 L 408.067 146 393.533 146 L 379 146 379 195.889 M 464.604 166.038 C 459.313 167.622, 453 175.190, 453 179.950 C 453 181.939, 453.524 182, 470.625 182 L 488.250 182 487.623 178.865 C 485.578 168.641, 475.211 162.864, 464.604 166.038 M 308.898 168.289 C 307.029 169.547, 304.375 172.585, 303 175.039 C 300.720 179.107, 300.500 180.556, 300.500 191.500 C 300.500 202.055, 300.781 204.071, 302.836 208.243 C 306.140 214.952, 310.092 217.500, 317.194 217.500 C 322.327 217.500, 323.238 217.161, 326.432 214.066 C 331.746 208.916, 333.500 203.315, 333.500 191.500 C 333.500 182.573, 333.200 180.888, 330.702 175.802 C 328.934 172.203, 326.681 169.348, 324.584 168.052 C 320.012 165.226, 313.294 165.327, 308.898 168.289 M 955.304 233.956 C 950.814 236.694, 948.667 240.428, 948.667 245.500 C 948.667 253.467, 954.688 258.990, 963.382 258.996 C 974.979 259.005, 981.804 247.891, 975.984 238.474 C 972.135 232.246, 961.809 229.990, 955.304 233.956 M 824 301.500 L 824 363 851.750 362.983 C 883.297 362.963, 889.116 362.184, 900.858 356.405 C 914.418 349.732, 923.769 337.699, 928.128 321.314 C 931.123 310.056, 931.110 292.383, 928.099 281.535 C 923.524 265.053, 914.360 253.355, 900.827 246.724 C 889.043 240.950, 882.011 240, 851.042 240 L 824 240 824 301.500 M 853 301.402 L 853 338 864.818 338 C 880.487 338, 885.945 336.408, 892.126 330.035 C 898.901 323.048, 900.500 317.599, 900.500 301.500 C 900.500 286.494, 899.016 280.715, 893.510 274.283 C 887.825 267.641, 881.832 265.642, 866.250 265.189 L 853 264.804 853 301.402 M 1020.500 271.424 C 1012.846 273.344, 1008.623 275.444, 1003.950 279.653 C 998.305 284.738, 995.859 290.429, 995.812 298.586 C 995.719 314.761, 1003.872 321.730, 1028.500 326.524 C 1043.970 329.535, 1049.477 331.778, 1050.397 335.446 C 1051.788 340.987, 1046.276 345.001, 1037.282 344.998 C 1031.309 344.997, 1026.114 342.466, 1023.505 338.289 L 1021.500 335.077 1007.250 335.039 C 998.760 335.016, 993 335.389, 993 335.962 C 993 339.031, 997.636 348.441, 1001.069 352.341 C 1008.045 360.266, 1021.419 364.965, 1037 364.965 C 1062.514 364.965, 1080 352.287, 1080 333.790 C 1080 324.805, 1075.521 317.865, 1066.872 313.452 C 1064.326 312.153, 1055.326 309.665, 1046.872 307.923 C 1029.934 304.434, 1026.458 303.099, 1024.792 299.443 C 1021.497 292.211, 1033.706 286.565, 1043.385 290.846 C 1046.225 292.102, 1048.713 294.089, 1049.769 295.946 L 1051.500 298.987 1064.829 298.994 L 1078.159 299 1077.478 295.750 C 1074.751 282.735, 1064.864 273.819, 1050.040 271.008 C 1042.884 269.650, 1026.660 269.879, 1020.500 271.424 M 1124 271.433 C 1108.186 275.840, 1096.647 288.313, 1093.130 304.799 C 1090.616 316.586, 1092.188 331.040, 1097.127 341.546 C 1100.070 347.808, 1107.762 356.008, 1113.747 359.266 C 1123.290 364.460, 1138.379 366.372, 1150.201 363.885 C 1167.066 360.338, 1179.118 347.941, 1180.712 332.503 L 1181.280 327 1167.751 327 L 1154.223 327 1153.562 330.521 C 1152.183 337.873, 1143.722 343.926, 1136.685 342.596 C 1126.809 340.730, 1121.716 332.281, 1121.582 317.544 C 1121.481 306.438, 1123.460 300.624, 1129.061 295.564 C 1132.485 292.471, 1133.672 292, 1138.053 292 C 1146.307 292, 1152.240 296.432, 1153.585 303.601 L 1154.223 307 1167.751 307 L 1181.280 307 1180.726 301.637 C 1179.282 287.645, 1167.987 275.479, 1152.650 271.395 C 1146.329 269.712, 1130.098 269.734, 1124 271.433 M 1226 271.360 C 1205.472 276.948, 1194 293.489, 1194 317.500 C 1194 333.199, 1198.137 344.056, 1207.488 352.900 C 1213.674 358.751, 1218.809 361.507, 1227.219 363.489 C 1255.385 370.130, 1280.063 356.072, 1285.531 330.270 C 1291.488 302.155, 1278.620 277.824, 1254.465 271.533 C 1247.478 269.713, 1232.387 269.621, 1226 271.360 M 1427.746 271.086 C 1418.551 273.253, 1407.399 281.262, 1402.256 289.394 C 1398.248 295.730, 1395.907 303.895, 1395.292 313.684 C 1393.310 345.196, 1411.319 364.970, 1442 364.970 C 1456.441 364.970, 1468.274 360.579, 1476.608 352.125 C 1481.662 346.999, 1485.975 337.235, 1483.797 335.853 C 1483.083 335.401, 1477.183 335.024, 1470.685 335.015 L 1458.871 335 1456.232 338.136 C 1447.441 348.583, 1427.260 344.475, 1424.566 331.689 C 1424.255 330.210, 1423.766 327.875, 1423.481 326.500 L 1422.962 324 1454.599 324 L 1486.237 324 1485.538 315.250 C 1484.641 304.023, 1483.389 298.881, 1479.794 291.668 C 1472.561 277.152, 1459.149 269.876, 1440.040 270.100 C 1435.343 270.156, 1429.811 270.599, 1427.746 271.086 M 1543.500 271.388 C 1539.473 273.145, 1533.520 279.893, 1532.040 284.379 C 1530.211 289.921, 1529 287.756, 1529 278.941 L 1529 271 1515 271 L 1501 271 1501 317 L 1501 363 1515.500 363 L 1530 363 1530.022 336.250 C 1530.042 312.383, 1530.243 309.069, 1531.890 305.500 C 1535.783 297.065, 1542.809 293.427, 1553.224 294.453 L 1560 295.121 1560 282.561 L 1560 270 1553.250 270.039 C 1549.537 270.061, 1545.150 270.667, 1543.500 271.388 M 949 317 L 949 363 963.500 363 L 978 363 978 317 L 978 271 963.500 271 L 949 271 949 317 M 1293 271.612 C 1293 272.174, 1321.980 357.250, 1323.534 361.250 C 1324.144 362.820, 1325.938 363, 1340.977 363 L 1357.740 363 1372.739 319.250 C 1380.989 295.188, 1388.057 274.476, 1388.445 273.224 L 1389.152 270.947 1373.919 271.224 L 1358.686 271.500 1350.240 303 C 1345.595 320.325, 1341.615 334.687, 1341.397 334.917 C 1340.553 335.803, 1339.873 333.623, 1332.996 307.960 C 1329.096 293.407, 1325.239 279.137, 1324.425 276.250 L 1322.944 271 1307.972 271 C 1299.737 271, 1293 271.276, 1293 271.612 M 1569 271.433 C 1569 271.670, 1576.200 292.879, 1585 318.562 C 1593.800 344.246, 1601 366.361, 1601 367.707 C 1601 369.078, 1599.715 371.439, 1598.077 373.077 C 1594.965 376.189, 1589.712 376.981, 1584.738 375.090 C 1582.412 374.206, 1582.255 374.474, 1579.123 384.708 C 1577.351 390.497, 1576.036 395.353, 1576.201 395.499 C 1577.316 396.485, 1588.323 398, 1594.368 398 C 1603.231 398, 1610.233 396.032, 1616.640 391.741 C 1625.702 385.671, 1627.262 382.227, 1646.942 324.855 C 1656.874 295.900, 1665 271.938, 1665 271.605 C 1665 271.272, 1658.285 271, 1650.078 271 L 1635.155 271 1634.138 274.250 C 1633.578 276.038, 1629.672 290.775, 1625.457 307 C 1621.243 323.225, 1617.616 336.687, 1617.397 336.917 C 1616.439 337.921, 1615.430 334.612, 1608.523 307.831 C 1604.504 292.249, 1600.700 277.587, 1600.070 275.250 L 1598.923 271 1583.961 271 C 1575.733 271, 1569 271.195, 1569 271.433 M 1435.655 291.459 C 1429.402 293.688, 1424 299.941, 1424 304.950 C 1424 306.939, 1424.525 307, 1441.519 307 L 1459.038 307 1458.379 304.250 C 1456.759 297.497, 1453.412 293.623, 1447.316 291.449 C 1442.523 289.739, 1440.473 289.741, 1435.655 291.459 M 1233.389 292.905 C 1226.492 297.110, 1223.500 304.402, 1223.500 317 C 1223.500 328.686, 1225.430 334.349, 1231.184 339.548 C 1235.071 343.059, 1235.512 343.203, 1241.112 342.798 C 1247.755 342.318, 1250.725 340.231, 1254.347 333.500 C 1256.209 330.041, 1256.500 327.878, 1256.500 317.500 C 1256.500 306.700, 1256.250 305, 1254 300.501 C 1249.607 291.719, 1240.711 288.440, 1233.389 292.905" stroke="none" fill="#000000" fill-rule="evenodd"/>
</svg>